<?xml version="1.0" encoding="utf-8"?><svg version="1.1" id="Layer_1" xmlns="http://www.w3.org/2000/svg" xmlns:xlink="http://www.w3.org/1999/xlink" x="0px" y="0px" viewBox="0 0 283.5 95.1" style="enable-background:new 0 0 283.5 95.1;" xml:space="preserve"><style type="text/css">.st0{fill-rule:evenodd;clip-rule:evenodd;fill:#0078B5;}.st1{fill-rule:evenodd;clip-rule:evenodd;fill:#02ABE3;}.st2{fill-rule:evenodd;clip-rule:evenodd;fill:#070204;}</style><g><path class="st0" d="M141.4,34.6c-13,2.4-16.4,8.7-17.1,21.1c0,0.3,0,0,0,0.2l-0.1,0.3c-0.2,1.1,0,37.7,0,38.7c6.6,0,13.1,0.1,19.8,0.1h60V69h-54.5c0.3-0.9,0.1-6.9,0.1-8.3h3.2c24.5,0,49.2-0.1,73.7,0c9.2,0,13.7-5.4,14.2-13.8V23.7c0-5.4-0.8-8.9-3.9-13.5C232.7,3.9,225.7,0,217.2,0h-64.5c-17.2,0-27.6,6.6-28.1,25.4h90.8v9.1h-73.3C141.9,34.6,141.8,34.6,141.4,34.6z"/><path class="st0" d="M88,69H0c0,4.1-0.2,5.4,1.1,9.4c1,2.9,3,7,5.2,9.2C6.6,87.8,6.8,88,7,88.3c0.5,0.6,2.1,2,2.8,2.5c2.1,1.6,4.3,2.7,7.1,3.5c3,0.8,5.9,0.8,9.8,0.8h63.4c1.6,0,3.7,0.1,5.2,0c11.7-1,21.5-11,21.5-22.8c0-5.2,0-10.3,0-15.5c-0.6-13.6-11.7-22-24.2-22H28h-2.4v-8.9h2.3h89c0-6.3-1.3-11.9-4.9-16.7c-3.7-4.9-9.2-8.1-15.4-8.8C95.9,0.2,94.9,0,94.1,0C88.9,0,83.3,0,78,0H24.2C12.1,0,1.7,8.3,0.2,20.5c-0.3,2.4-0.2,5-0.2,9v5.1c0,2.8-0.2,4,0.5,6.8c2.7,11.3,10.9,18.4,22.9,18.9c3,0.1,6.1,0,9.5,0h58.5v3.8V69H88z"/><path class="st1" d="M212.7,69.4v25.3l0.4,0.4h27.7l-0.1-26h-27.6C212.8,69.1,212.7,69.2,212.7,69.4z"/><path class="st2" d="M259,76.6c1.3,0,7.1-0.2,7.9,0.1v18.4h8.6l0.1-18.4c1.1-0.3,6.4-0.1,7.9-0.1v-7.2H259V76.6z"/><path class="st2" d="M248.9,94.7c0,0.3,0.1,0.4,0.4,0.4h8.4V69.3h-8.8V94.7z"/></g></svg>